# File created by Blade
# Date/Time:  Tue Apr 07 20:45:22 2015
# Frame Rate: 120.000 fps
#------------------------------------------------------
:FULLY-SPECIFIED
:DEGREES
1037
root 0.704208 33.003014 -1.897304 8.320724 0.467982 -2.415542
Spine -8.176195 -5.069298 1.676150
Head 9.385247 -1.527669 0.342818
LeftShoulder -21.976762 37.219462 20.618153
LeftArm 59.589883 -59.123373 -59.608584
LeftForeArm 12.829474 -0.000000 -2.841103
LeftHand 2.252726 -0.000000 3.492763
LeftHandThumb1 -26.253704 0.000000 33.147579
RightShoulder -7.522306 5.911844 -31.601344
RightArm 6.334767 26.511666 44.654422
RightForeArm -10.835757 -0.000000 -1.439433
RightHand 1.748671 -0.000000 0.516667
RightHandThumb1 -24.326973 -0.000000 -32.862282
LeftUpLeg 1.152355 -8.454256 4.068201
LeftLeg -6.719196 -0.000000 0.000000
LeftFoot -1.525255 5.656607 -19.437517
LeftToeBase -15.344793 -0.000000 0.000000
RightUpLeg -1.035347 0.345134 3.916265
RightLeg -4.090845 -0.000000 0.000000
RightFoot -3.667428 -8.347353 8.480134
RightToeBase -3.695833 -0.000000 0.000000
1038
root 0.701691 32.990795 -1.910083 8.251311 0.472300 -2.345303
Spine -8.080917 -5.135545 1.570609
Head 9.377650 -1.507104 0.358160
LeftShoulder -22.031495 37.195388 20.598907
LeftArm 59.721403 -59.235080 -59.685661
LeftForeArm 12.884588 -0.000000 -2.812602
LeftHand 2.199770 0.000000 3.509779
LeftHandThumb1 -26.253704 0.000000 33.147579
RightShoulder -7.500505 5.963359 -31.633413
RightArm 6.442182 26.451978 44.675592
RightForeArm -10.867527 -0.000000 -1.395412
RightHand 1.831660 -0.000000 0.244864
RightHandThumb1 -24.326973 -0.000000 -32.862282
LeftUpLeg 1.218789 -8.385818 3.988209
LeftLeg -6.749367 -0.000000 0.000000
LeftFoot -1.567485 5.607435 -19.411056
LeftToeBase -15.325390 -0.000000 0.000000
RightUpLeg -0.969589 0.299650 3.874470
RightLeg -4.106047 -0.000000 0.000000
RightFoot -3.848259 -8.402190 8.388289
RightToeBase -3.586112 -0.000000 0.000000
1039
root 0.698800 32.978926 -1.920600 8.189012 0.515006 -2.292272
Spine -8.006100 -5.218198 1.498354
Head 9.380864 -1.510927 0.336136
LeftShoulder -22.069647 37.200982 20.562208
LeftArm 59.874619 -59.367737 -59.791389
LeftForeArm 12.881948 -0.000000 -2.723914
LeftHand 2.249104 -0.000000 3.721933
LeftHandThumb1 -26.253704 0.000000 33.147579
RightShoulder -7.485794 6.027890 -31.654468
RightArm 6.528144 26.429805 44.637152
RightForeArm -10.726885 -0.000000 -1.346228
RightHand 1.748603 -0.000000 0.385930
RightHandThumb1 -24.326973 -0.000000 -32.862282
LeftUpLeg 1.284089 -8.408169 3.932765
LeftLeg -6.793522 -0.000000 0.000000
LeftFoot -1.632537 5.614023 -19.404726
LeftToeBase -15.310581 -0.000000 0.000000
RightUpLeg -0.865766 0.286199 3.844170
RightLeg -4.203049 -0.000000 0.000000
RightFoot -3.976514 -8.480532 8.356218
RightToeBase -3.478844 -0.000000 0.000000
1040
root 0.694202 32.967224 -1.931397 8.149199 0.579853 -2.264994
Spine -7.959986 -5.282986 1.454729
Head 9.396480 -1.554511 0.307414
LeftShoulder -22.102679 37.166747 20.548832
LeftArm 59.931997 -59.421503 -59.769629
LeftForeArm 12.891051 -0.000000 -2.606585
LeftHand 2.195774 -0.000000 3.766477
LeftHandThumb1 -26.253704 0.000000 33.147579
RightShoulder -7.497855 6.078347 -31.691821
RightArm 6.584142 26.360763 44.581039
RightForeArm -10.644029 -0.000000 -1.274234
RightHand 1.774508 0.000000 0.383355
RightHandThumb1 -24.326973 -0.000000 -32.862282
LeftUpLeg 1.322873 -8.443956 3.904168
LeftLeg -6.839730 -0.000000 0.000000
LeftFoot -1.696698 5.678979 -19.321790
LeftToeBase -15.371501 -0.000000 0.000000
RightUpLeg -0.786062 0.254613 3.839762
RightLeg -4.292829 -0.000000 0.000000
RightFoot -4.091154 -8.540674 8.328268
RightToeBase -3.394282 -0.000000 0.000000
1041
root 0.690843 32.957759 -1.942313 8.132875 0.659667 -2.229302
Spine -7.944781 -5.345768 1.410433
Head 9.423172 -1.595817 0.255812
LeftShoulder -22.152363 37.189470 20.494702
LeftArm 60.144682 -59.499240 -59.879628
LeftForeArm 12.949503 -0.000000 -2.491837
LeftHand 2.263515 0.000000 4.027145
LeftHandThumb1 -26.253704 0.000000 33.147579
RightShoulder -7.511243 6.106027 -31.708973
RightArm 6.623550 26.342122 44.488495
RightForeArm -10.712522 -0.000000 -1.150252
RightHand 1.680564 -0.000000 0.524658
RightHandThumb1 -24.326973 -0.000000 -32.862282
LeftUpLeg 1.323040 -8.510345 3.875105
LeftLeg -6.863871 -0.000000 0.000000
LeftFoot -1.746519 5.729760 -19.261848
LeftToeBase -15.356305 -0.000000 0.000000
RightUpLeg -0.736834 0.204156 3.824324
RightLeg -4.367243 -0.000000 0.000000
RightFoot -4.217221 -8.584904 8.351187
RightToeBase -3.264773 -0.000000 0.000000
1042
root 0.694528 32.950365 -1.950905 8.123911 0.721590 -2.147928
Spine -7.948783 -5.395019 1.336398
Head 9.465564 -1.624540 0.173962
LeftShoulder -22.194605 37.217196 20.431329
LeftArm 60.225266 -59.550207 -59.860998
LeftForeArm 13.115407 0.000000 -2.315522
LeftHand 2.191314 0.000000 4.121528
LeftHandThumb1 -26.253704 0.000000 33.147579
RightShoulder -7.531149 6.147300 -31.756746
RightArm 6.660053 26.373216 44.404101
RightForeArm -10.684379 -0.000000 -1.062158
RightHand 1.759379 -0.000000 0.223981
RightHandThumb1 -24.326973 -0.000000 -32.862282
LeftUpLeg 1.278959 -8.367163 3.787318
LeftLeg -6.797432 -0.000000 0.000000
LeftFoot -1.743601 5.540331 -19.248355
LeftToeBase -15.438614 -0.000000 0.000000
RightUpLeg -0.696574 0.143704 3.739274
RightLeg -4.431116 -0.000000 0.000000
RightFoot -4.314325 -8.562157 8.382588
RightToeBase -3.245550 -0.000000 0.000000
1043
root 0.689169 32.944737 -1.960956 8.144716 0.788636 -2.144625
Spine -7.989773 -5.413787 1.327546
Head 9.521032 -1.684502 0.109823
LeftShoulder -22.230369 37.271509 20.389004
LeftArm 60.272582 -59.545949 -59.771095
LeftForeArm 13.039117 -0.000000 -2.171888
LeftHand 2.165023 -0.000000 4.254295
LeftHandThumb1 -26.253704 0.000000 33.147579
RightShoulder -7.542900 6.178203 -31.766885
RightArm 6.647856 26.352094 44.247646
RightForeArm -10.729350 -0.000000 -0.936760
RightHand 1.722597 -0.000000 0.389011
RightHandThumb1 -24.326973 -0.000000 -32.862282
LeftUpLeg 1.242957 -8.439361 3.787339
LeftLeg -6.816617 -0.000000 0.000000
LeftFoot -1.803529 5.666932 -19.122985
LeftToeBase -15.431256 -0.000000 0.000000
RightUpLeg -0.702774 0.131983 3.744127
RightLeg -4.468111 -0.000000 0.000000
RightFoot -4.414020 -8.561775 8.458274
RightToeBase -3.116535 -0.000000 0.000000
1044
root 0.679721 32.940520 -1.970744 8.172763 0.866489 -2.195629
Spine -8.036719 -5.415959 1.377505
Head 9.564980 -1.754184 0.042000
LeftShoulder -22.248437 37.298263 20.354644
LeftArm 60.250132 -59.540967 -59.610720
LeftForeArm 13.117700 -0.000000 -2.014849
LeftHand 2.188797 -0.000000 4.144748
LeftHandThumb1 -26.253704 0.000000 33.147579
RightShoulder -7.586051 6.156726 -31.800570
RightArm 6.687421 26.337944 44.134223
RightForeArm -10.825207 0.000000 -0.857215
RightHand 1.834675 0.000000 0.276298
RightHandThumb1 -24.326973 -0.000000 -32.862282
LeftUpLeg 1.227566 -8.720776 3.848704
LeftLeg -6.896873 -0.000000 0.000000
LeftFoot -1.924694 6.038683 -19.016974
LeftToeBase -15.365454 -0.000000 0.000000
RightUpLeg -0.750877 0.063019 3.810865
RightLeg -4.441886 -0.000000 0.000000
RightFoot -4.484264 -8.492635 8.562198
RightToeBase -3.065984 -0.000000 0.000000
1045
root 0.673834 32.938788 -1.980196 8.203573 0.927585 -2.210975
Spine -8.090677 -5.387978 1.390329
Head 9.622778 -1.848724 -0.036399
LeftShoulder -22.245862 37.336180 20.333818
LeftArm 60.153002 -59.489300 -59.344627
LeftForeArm 13.010439 0.000000 -1.928323
LeftHand 2.233237 0.000000 4.130706
LeftHandThumb1 -26.253704 0.000000 33.147579
RightShoulder -7.618513 6.129311 -31.790389
RightArm 6.710470 26.472930 43.948041
RightForeArm -10.985793 0.000000 -0.748651
RightHand 1.617668 -0.000000 0.397370
RightHandThumb1 -24.326973 -0.000000 -32.862282
LeftUpLeg 1.178258 -8.812024 3.857818
LeftLeg -6.912710 -0.000000 0.000000
LeftFoot -1.978417 6.261512 -18.840059
LeftToeBase -15.368568 -0.000000 0.000000
RightUpLeg -0.783242 0.081927 3.829643
RightLeg -4.458681 -0.000000 0.000000
RightFoot -4.531138 -8.499057 8.624862
RightToeBase -2.990068 -0.000000 0.000000
1046
root 0.669058 32.940016 -1.989127 8.235064 0.978927 -2.236838
Spine -8.147419 -5.345757 1.405159
Head 9.691410 -1.935846 -0.078243
LeftShoulder -22.233766 37.356572 20.362840
LeftArm 60.083122 -59.416370 -59.157718
LeftForeArm 12.850593 -0.000000 -1.835263
LeftHand 2.299612 0.000000 4.215731
LeftHandThumb1 -26.253704 0.000000 33.147579
RightShoulder -7.661318 6.105489 -31.816134
RightArm 6.681169 26.264532 43.794226
RightForeArm -10.845625 -0.000000 -0.639483
RightHand 1.853159 -0.000000 0.129964
RightHandThumb1 -24.326973 -0.000000 -32.862282
LeftUpLeg 1.116813 -8.875903 3.885831
LeftLeg -6.900303 -0.000000 0.000000
LeftFoot -2.020932 6.386436 -18.801825
LeftToeBase -15.243883 -0.000000 0.000000
RightUpLeg -0.864620 0.003832 3.858726
RightLeg -4.381690 -0.000000 0.000000
RightFoot -4.566579 -8.388525 8.755606
RightToeBase -3.045593 -0.000000 0.000000
1047
root 0.663689 32.942309 -1.996580 8.254391 1.007361 -2.241775
Spine -8.191471 -5.295015 1.384672
Head 9.759569 -2.012087 -0.094480
LeftShoulder -22.213723 37.382488 20.399413
LeftArm 60.102320 -59.409184 -59.085954
LeftForeArm 12.820707 -0.000000 -1.745343
LeftHand 2.229581 -0.000000 4.159411
LeftHandThumb1 -26.253704 0.000000 33.147579
RightShoulder -7.687579 6.109901 -31.841993
RightArm 6.653836 26.306527 43.659497
RightForeArm -10.953611 -0.000000 -0.592888
RightHand 1.852203 -0.000000 -0.141676
RightHandThumb1 -24.326973 -0.000000 -32.862282
LeftUpLeg 1.073791 -8.890784 3.892513
LeftLeg -6.895084 -0.000000 0.000000
LeftFoot -2.006556 6.491519 -18.754755
LeftToeBase -15.323377 -0.000000 0.000000
RightUpLeg -0.913640 0.007198 3.864134
RightLeg -4.340215 -0.000000 0.000000
RightFoot -4.603051 -8.359297 8.815505
RightToeBase -2.987969 -0.000000 0.000000
1048
root 0.657272 32.946223 -2.004021 8.259879 1.016826 -2.254477
Spine -8.222945 -5.183631 1.364225
Head 9.847069 -2.139484 -0.123433
LeftShoulder -22.154764 37.403855 20.469254
LeftArm 60.077952 -59.342227 -58.946768
LeftForeArm 12.703511 -0.000000 -1.742944
LeftHand 1.825570 -0.000000 4.919355
LeftHandThumb1 -26.253704 0.000000 33.147579
RightShoulder -7.741254 6.064182 -31.863292
RightArm 6.650292 26.255515 43.516657
RightForeArm -10.950378 -0.000000 -0.530589
RightHand 1.853799 -0.000000 -0.222749
RightHandThumb1 -24.326973 -0.000000 -32.862282
LeftUpLeg 1.046015 -8.848657 3.904336
LeftLeg -6.884738 -0.000000 0.000000
LeftFoot -1.993648 6.540083 -18.684439
LeftToeBase -15.247307 -0.000000 0.000000
RightUpLeg -0.952577 0.027774 3.876177
RightLeg -4.296812 -0.000000 0.000000
RightFoot -4.599067 -8.321616 8.879218
RightToeBase -2.984510 -0.000000 0.000000
